<?xml version="1.0" encoding="UTF-8" standalone="no"?>
<!DOCTYPE svg PUBLIC "-//W3C//DTD SVG 1.1//EN"
 "http://www.w3.org/Graphics/SVG/1.1/DTD/svg11.dtd">
<!-- Generated by graphviz version 2.43.0 (0)
 -->
<!-- Title: aith Pages: 1 -->
<svg width="3345pt" height="332pt"
 viewBox="0.00 0.00 3345.24 332.00" xmlns="http://www.w3.org/2000/svg" xmlns:xlink="http://www.w3.org/1999/xlink">
<g id="graph0" class="graph" transform="scale(1 1) rotate(0) translate(4 328)">
<title>aith</title>
<polygon fill="white" stroke="transparent" points="-4,4 -4,-328 3341.24,-328 3341.24,4 -4,4"/>
<g id="clust1" class="cluster">
<title>cluster_kind</title>
<polygon fill="lightgray" stroke="transparent" points="866,-208 866,-260 1280,-260 1280,-208 866,-208"/>
</g>
<g id="clust2" class="cluster">
<title>cluster_pretype</title>
<polygon fill="lightgray" stroke="transparent" points="1061,-136 1061,-188 2266,-188 2266,-136 1061,-136"/>
</g>
<g id="clust3" class="cluster">
<title>cluster_effect</title>
<polygon fill="lightgray" stroke="transparent" points="2205,-64 2205,-116 3071,-116 3071,-64 2205,-64"/>
</g>
<!-- unification -->
<g id="node1" class="node">
<title>unification</title>
<ellipse fill="none" stroke="black" cx="2409" cy="-234" rx="59.59" ry="18"/>
<text text-anchor="middle" x="2409" y="-230.3" font-family="Times,serif" font-size="14.00">unification</text>
</g>
<!-- top -->
<g id="node2" class="node">
<title>top</title>
<ellipse fill="none" stroke="black" cx="1189" cy="-306" rx="27" ry="18"/>
<text text-anchor="middle" x="1189" y="-302.3" font-family="Times,serif" font-size="14.00">top</text>
</g>
<!-- unification&#45;&gt;top -->
<g id="edge1" class="edge">
<title>unification&#45;&gt;top</title>
<path fill="none" stroke="black" d="M2350.57,-238.35C2136.66,-250.63 1399.69,-292.91 1225.92,-302.88"/>
<polygon fill="black" stroke="black" points="1225.54,-299.4 1215.75,-303.47 1225.94,-306.39 1225.54,-299.4"/>
</g>
<!-- syntactic -->
<g id="node3" class="node">
<title>syntactic</title>
<ellipse fill="none" stroke="black" cx="2409" cy="-162" rx="52.79" ry="18"/>
<text text-anchor="middle" x="2409" y="-158.3" font-family="Times,serif" font-size="14.00">syntactic</text>
</g>
<!-- syntactic&#45;&gt;unification -->
<g id="edge2" class="edge">
<title>syntactic&#45;&gt;unification</title>
<path fill="none" stroke="black" d="M2409,-180.3C2409,-188.02 2409,-197.29 2409,-205.89"/>
<polygon fill="black" stroke="black" points="2405.5,-205.9 2409,-215.9 2412.5,-205.9 2405.5,-205.9"/>
</g>
<!-- propositional -->
<g id="node4" class="node">
<title>propositional</title>
<ellipse fill="none" stroke="black" cx="2551" cy="-162" rx="71.49" ry="18"/>
<text text-anchor="middle" x="2551" y="-158.3" font-family="Times,serif" font-size="14.00">propositional</text>
</g>
<!-- propositional&#45;&gt;unification -->
<g id="edge3" class="edge">
<title>propositional&#45;&gt;unification</title>
<path fill="none" stroke="black" d="M2519.84,-178.36C2498.74,-188.76 2470.71,-202.58 2448.11,-213.72"/>
<polygon fill="black" stroke="black" points="2446.54,-210.59 2439.12,-218.15 2449.63,-216.87 2446.54,-210.59"/>
</g>
<!-- kindBool -->
<g id="node5" class="node">
<title>kindBool</title>
<ellipse fill="none" stroke="black" cx="981" cy="-234" rx="107.48" ry="18"/>
<text text-anchor="middle" x="981" y="-230.3" font-family="Times,serif" font-size="14.00">kind&lt;propositional&gt;</text>
</g>
<!-- kindBool&#45;&gt;top -->
<g id="edge4" class="edge">
<title>kindBool&#45;&gt;top</title>
<path fill="none" stroke="black" d="M1026.65,-250.36C1065.61,-263.48 1120.74,-282.03 1155.67,-293.78"/>
<polygon fill="black" stroke="black" points="1154.8,-297.18 1165.39,-297.05 1157.03,-290.55 1154.8,-297.18"/>
</g>
<!-- kind -->
<g id="node6" class="node">
<title>kind</title>
<ellipse fill="none" stroke="black" cx="1189" cy="-234" rx="83.39" ry="18"/>
<text text-anchor="middle" x="1189" y="-230.3" font-family="Times,serif" font-size="14.00">kind&lt;syntatic&gt;</text>
</g>
<!-- kind&#45;&gt;top -->
<g id="edge5" class="edge">
<title>kind&#45;&gt;top</title>
<path fill="none" stroke="black" d="M1189,-252.3C1189,-260.02 1189,-269.29 1189,-277.89"/>
<polygon fill="black" stroke="black" points="1185.5,-277.9 1189,-287.9 1192.5,-277.9 1185.5,-277.9"/>
</g>
<!-- region -->
<g id="node7" class="node">
<title>region</title>
<ellipse fill="none" stroke="black" cx="52" cy="-162" rx="40.09" ry="18"/>
<text text-anchor="middle" x="52" y="-158.3" font-family="Times,serif" font-size="14.00">region</text>
</g>
<!-- region&#45;&gt;kindBool -->
<g id="edge6" class="edge">
<title>region&#45;&gt;kindBool</title>
<path fill="none" stroke="black" d="M84.23,-172.82C103.43,-178.24 128.39,-184.57 151,-188 402.64,-226.23 701.52,-233.14 863.1,-233.74"/>
<polygon fill="black" stroke="black" points="863.53,-237.24 873.54,-233.77 863.55,-230.24 863.53,-237.24"/>
</g>
<!-- io -->
<g id="node8" class="node">
<title>io</title>
<ellipse fill="none" stroke="black" cx="27" cy="-90" rx="27" ry="18"/>
<text text-anchor="middle" x="27" y="-86.3" font-family="Times,serif" font-size="14.00">io</text>
</g>
<!-- io&#45;&gt;region -->
<g id="edge7" class="edge">
<title>io&#45;&gt;region</title>
<path fill="none" stroke="black" d="M32.92,-107.59C35.78,-115.58 39.27,-125.36 42.48,-134.36"/>
<polygon fill="black" stroke="black" points="39.28,-135.8 45.94,-144.04 45.88,-133.45 39.28,-135.8"/>
</g>
<!-- multiplicity -->
<g id="node9" class="node">
<title>multiplicity</title>
<ellipse fill="none" stroke="black" cx="224" cy="-162" rx="63.89" ry="18"/>
<text text-anchor="middle" x="224" y="-158.3" font-family="Times,serif" font-size="14.00">multiplicity</text>
</g>
<!-- multiplicity&#45;&gt;kindBool -->
<g id="edge8" class="edge">
<title>multiplicity&#45;&gt;kindBool</title>
<path fill="none" stroke="black" d="M258.63,-177.13C270.31,-181.33 283.55,-185.48 296,-188 401.76,-209.43 700.64,-223.06 866.52,-229.2"/>
<polygon fill="black" stroke="black" points="866.64,-232.71 876.76,-229.58 866.89,-225.71 866.64,-232.71"/>
</g>
<!-- size -->
<g id="node10" class="node">
<title>size</title>
<ellipse fill="none" stroke="black" cx="334" cy="-162" rx="28.7" ry="18"/>
<text text-anchor="middle" x="334" y="-158.3" font-family="Times,serif" font-size="14.00">size</text>
</g>
<!-- size&#45;&gt;kind -->
<g id="edge9" class="edge">
<title>size&#45;&gt;kind</title>
<path fill="none" stroke="black" d="M361.11,-168.2C393.18,-174.12 448.26,-183.54 496,-188 762.1,-212.87 832.71,-168.25 1097,-208 1109.4,-209.86 1122.51,-212.82 1134.84,-216.04"/>
<polygon fill="black" stroke="black" points="1133.95,-219.43 1144.52,-218.68 1135.79,-212.68 1133.95,-219.43"/>
</g>
<!-- byte -->
<g id="node11" class="node">
<title>byte</title>
<ellipse fill="none" stroke="black" cx="101" cy="-90" rx="29.5" ry="18"/>
<text text-anchor="middle" x="101" y="-86.3" font-family="Times,serif" font-size="14.00">8bit</text>
</g>
<!-- byte&#45;&gt;size -->
<g id="edge10" class="edge">
<title>byte&#45;&gt;size</title>
<path fill="none" stroke="black" d="M118.26,-104.75C124.47,-109.03 131.74,-113.32 139,-116 205.4,-140.53 230.76,-111.06 297,-136 301,-137.51 304.99,-139.52 308.8,-141.76"/>
<polygon fill="black" stroke="black" points="306.95,-144.73 317.24,-147.24 310.76,-138.86 306.95,-144.73"/>
</g>
<!-- short -->
<g id="node12" class="node">
<title>short</title>
<ellipse fill="none" stroke="black" cx="183" cy="-90" rx="35.19" ry="18"/>
<text text-anchor="middle" x="183" y="-86.3" font-family="Times,serif" font-size="14.00">16bit</text>
</g>
<!-- short&#45;&gt;size -->
<g id="edge11" class="edge">
<title>short&#45;&gt;size</title>
<path fill="none" stroke="black" d="M204.41,-104.52C211.43,-108.58 219.39,-112.8 227,-116 256.83,-128.53 267.67,-122.33 297,-136 300.69,-137.72 304.42,-139.79 308.02,-141.98"/>
<polygon fill="black" stroke="black" points="306.33,-145.06 316.61,-147.6 310.15,-139.2 306.33,-145.06"/>
</g>
<!-- int -->
<g id="node13" class="node">
<title>int</title>
<ellipse fill="none" stroke="black" cx="271" cy="-90" rx="35.19" ry="18"/>
<text text-anchor="middle" x="271" y="-86.3" font-family="Times,serif" font-size="14.00">32bit</text>
</g>
<!-- int&#45;&gt;size -->
<g id="edge12" class="edge">
<title>int&#45;&gt;size</title>
<path fill="none" stroke="black" d="M284.98,-106.54C293.42,-115.91 304.31,-128.01 313.68,-138.43"/>
<polygon fill="black" stroke="black" points="311.2,-140.9 320.49,-145.99 316.4,-136.21 311.2,-140.9"/>
</g>
<!-- long -->
<g id="node14" class="node">
<title>long</title>
<ellipse fill="none" stroke="black" cx="359" cy="-90" rx="35.19" ry="18"/>
<text text-anchor="middle" x="359" y="-86.3" font-family="Times,serif" font-size="14.00">64bit</text>
</g>
<!-- long&#45;&gt;size -->
<g id="edge13" class="edge">
<title>long&#45;&gt;size</title>
<path fill="none" stroke="black" d="M352.95,-107.95C350.09,-115.94 346.62,-125.67 343.43,-134.6"/>
<polygon fill="black" stroke="black" points="340.06,-133.62 340,-144.21 346.66,-135.97 340.06,-133.62"/>
</g>
<!-- signedness -->
<g id="node15" class="node">
<title>signedness</title>
<ellipse fill="none" stroke="black" cx="567" cy="-162" rx="62.29" ry="18"/>
<text text-anchor="middle" x="567" y="-158.3" font-family="Times,serif" font-size="14.00">signedness</text>
</g>
<!-- signedness&#45;&gt;kind -->
<g id="edge14" class="edge">
<title>signedness&#45;&gt;kind</title>
<path fill="none" stroke="black" d="M613.45,-174.17C636.36,-179.24 664.49,-184.8 690,-188 869.7,-210.55 918.13,-179.64 1097,-208 1109.13,-209.92 1121.96,-212.83 1134.07,-215.99"/>
<polygon fill="black" stroke="black" points="1133.47,-219.46 1144.03,-218.69 1135.3,-212.7 1133.47,-219.46"/>
</g>
<!-- signed -->
<g id="node16" class="node">
<title>signed</title>
<ellipse fill="none" stroke="black" cx="454" cy="-90" rx="41.69" ry="18"/>
<text text-anchor="middle" x="454" y="-86.3" font-family="Times,serif" font-size="14.00">signed</text>
</g>
<!-- signed&#45;&gt;signedness -->
<g id="edge15" class="edge">
<title>signed&#45;&gt;signedness</title>
<path fill="none" stroke="black" d="M476.87,-105.17C493.05,-115.19 515.02,-128.8 533.22,-140.07"/>
<polygon fill="black" stroke="black" points="531.46,-143.1 541.81,-145.39 535.15,-137.15 531.46,-143.1"/>
</g>
<!-- unsigned -->
<g id="node17" class="node">
<title>unsigned</title>
<ellipse fill="none" stroke="black" cx="567" cy="-90" rx="53.09" ry="18"/>
<text text-anchor="middle" x="567" y="-86.3" font-family="Times,serif" font-size="14.00">unsigned</text>
</g>
<!-- unsigned&#45;&gt;signedness -->
<g id="edge16" class="edge">
<title>unsigned&#45;&gt;signedness</title>
<path fill="none" stroke="black" d="M567,-108.3C567,-116.02 567,-125.29 567,-133.89"/>
<polygon fill="black" stroke="black" points="563.5,-133.9 567,-143.9 570.5,-133.9 563.5,-133.9"/>
</g>
<!-- boxed -->
<g id="node18" class="node">
<title>boxed</title>
<ellipse fill="none" stroke="black" cx="737" cy="-162" rx="38.19" ry="18"/>
<text text-anchor="middle" x="737" y="-158.3" font-family="Times,serif" font-size="14.00">boxed</text>
</g>
<!-- boxed&#45;&gt;kind -->
<g id="edge17" class="edge">
<title>boxed&#45;&gt;kind</title>
<path fill="none" stroke="black" d="M771.7,-169.71C801.21,-175.23 844.76,-182.95 883,-188 977.7,-200.51 1003.01,-190.97 1097,-208 1108.83,-210.14 1121.36,-213.09 1133.23,-216.2"/>
<polygon fill="black" stroke="black" points="1132.46,-219.61 1143.02,-218.84 1134.28,-212.85 1132.46,-219.61"/>
</g>
<!-- pointer -->
<g id="node19" class="node">
<title>pointer</title>
<ellipse fill="none" stroke="black" cx="665" cy="-90" rx="27" ry="18"/>
<text text-anchor="middle" x="665" y="-86.3" font-family="Times,serif" font-size="14.00">σ*</text>
</g>
<!-- pointer&#45;&gt;boxed -->
<g id="edge18" class="edge">
<title>pointer&#45;&gt;boxed</title>
<path fill="none" stroke="black" d="M679.57,-105.17C689.32,-114.64 702.36,-127.33 713.56,-138.21"/>
<polygon fill="black" stroke="black" points="711.34,-140.93 720.95,-145.39 716.22,-135.91 711.34,-140.93"/>
</g>
<!-- array -->
<g id="node20" class="node">
<title>array</title>
<ellipse fill="none" stroke="black" cx="737" cy="-90" rx="27" ry="18"/>
<text text-anchor="middle" x="737" y="-86.3" font-family="Times,serif" font-size="14.00">σ[]</text>
</g>
<!-- array&#45;&gt;boxed -->
<g id="edge19" class="edge">
<title>array&#45;&gt;boxed</title>
<path fill="none" stroke="black" d="M737,-108.3C737,-116.02 737,-125.29 737,-133.89"/>
<polygon fill="black" stroke="black" points="733.5,-133.9 737,-143.9 740.5,-133.9 733.5,-133.9"/>
</g>
<!-- representation -->
<g id="node21" class="node">
<title>representation</title>
<ellipse fill="none" stroke="black" cx="971" cy="-162" rx="79.09" ry="18"/>
<text text-anchor="middle" x="971" y="-158.3" font-family="Times,serif" font-size="14.00">representation</text>
</g>
<!-- representation&#45;&gt;kind -->
<g id="edge20" class="edge">
<title>representation&#45;&gt;kind</title>
<path fill="none" stroke="black" d="M1014.85,-177.08C1049.44,-188.19 1097.84,-203.73 1134.84,-215.61"/>
<polygon fill="black" stroke="black" points="1133.88,-218.98 1144.47,-218.7 1136.02,-212.31 1133.88,-218.98"/>
</g>
<!-- pointerRep -->
<g id="node22" class="node">
<title>pointerRep</title>
<ellipse fill="none" stroke="black" cx="826" cy="-90" rx="44.39" ry="18"/>
<text text-anchor="middle" x="826" y="-86.3" font-family="Times,serif" font-size="14.00">pointer</text>
</g>
<!-- pointerRep&#45;&gt;representation -->
<g id="edge21" class="edge">
<title>pointerRep&#45;&gt;representation</title>
<path fill="none" stroke="black" d="M853.27,-104.17C874.81,-114.56 905.2,-129.23 929.71,-141.07"/>
<polygon fill="black" stroke="black" points="928.26,-144.25 938.79,-145.45 931.3,-137.95 928.26,-144.25"/>
</g>
<!-- structRep -->
<g id="node23" class="node">
<title>structRep</title>
<ellipse fill="none" stroke="black" cx="971" cy="-90" rx="83.39" ry="18"/>
<text text-anchor="middle" x="971" y="-86.3" font-family="Times,serif" font-size="14.00">struct (κ, κ&#39;, ...)</text>
</g>
<!-- structRep&#45;&gt;representation -->
<g id="edge22" class="edge">
<title>structRep&#45;&gt;representation</title>
<path fill="none" stroke="black" d="M971,-108.3C971,-116.02 971,-125.29 971,-133.89"/>
<polygon fill="black" stroke="black" points="967.5,-133.9 971,-143.9 974.5,-133.9 967.5,-133.9"/>
</g>
<!-- wordRep -->
<g id="node24" class="node">
<title>wordRep</title>
<ellipse fill="none" stroke="black" cx="1115" cy="-90" rx="42.79" ry="18"/>
<text text-anchor="middle" x="1115" y="-86.3" font-family="Times,serif" font-size="14.00">κ word</text>
</g>
<!-- wordRep&#45;&gt;representation -->
<g id="edge23" class="edge">
<title>wordRep&#45;&gt;representation</title>
<path fill="none" stroke="black" d="M1087.91,-104.17C1066.53,-114.56 1036.35,-129.23 1012,-141.07"/>
<polygon fill="black" stroke="black" points="1010.46,-137.93 1002.99,-145.45 1013.52,-144.22 1010.46,-137.93"/>
</g>
<!-- pretype -->
<g id="node25" class="node">
<title>pretype</title>
<ellipse fill="none" stroke="black" cx="2175" cy="-162" rx="82.59" ry="18"/>
<text text-anchor="middle" x="2175" y="-158.3" font-family="Times,serif" font-size="14.00">pretype&lt;κ, κ&#39;&gt;</text>
</g>
<!-- pretype&#45;&gt;kind -->
<g id="edge24" class="edge">
<title>pretype&#45;&gt;kind</title>
<path fill="none" stroke="black" d="M2130.53,-177.3C2115.86,-181.45 2099.37,-185.53 2084,-188 1931.6,-212.47 1477.75,-226.04 1281.32,-230.91"/>
<polygon fill="black" stroke="black" points="1281.22,-227.41 1271.31,-231.15 1281.39,-234.41 1281.22,-227.41"/>
</g>
<!-- pretypePtrU -->
<g id="node26" class="node">
<title>pretypePtrU</title>
<ellipse fill="none" stroke="black" cx="1445" cy="-162" rx="117.78" ry="18"/>
<text text-anchor="middle" x="1445" y="-158.3" font-family="Times,serif" font-size="14.00">pretype&lt;pointer,true&gt;</text>
</g>
<!-- pretypePtrU&#45;&gt;kind -->
<g id="edge25" class="edge">
<title>pretypePtrU&#45;&gt;kind</title>
<path fill="none" stroke="black" d="M1390.08,-178.02C1348.37,-189.42 1291.1,-205.08 1248.34,-216.77"/>
<polygon fill="black" stroke="black" points="1247.35,-213.42 1238.63,-219.43 1249.2,-220.17 1247.35,-213.42"/>
</g>
<!-- pretypePtrL -->
<g id="node27" class="node">
<title>pretypePtrL</title>
<ellipse fill="none" stroke="black" cx="1701" cy="-162" rx="120.48" ry="18"/>
<text text-anchor="middle" x="1701" y="-158.3" font-family="Times,serif" font-size="14.00">pretype&lt;pointer,false&gt;</text>
</g>
<!-- pretypePtrL&#45;&gt;kind -->
<g id="edge26" class="edge">
<title>pretypePtrL&#45;&gt;kind</title>
<path fill="none" stroke="black" d="M1633.88,-176.99C1614.01,-180.87 1592.17,-184.86 1572,-188 1469.75,-203.89 1351.36,-217 1273.59,-224.89"/>
<polygon fill="black" stroke="black" points="1272.96,-221.43 1263.36,-225.92 1273.66,-228.4 1272.96,-221.43"/>
</g>
<!-- pretypeWord -->
<g id="node28" class="node">
<title>pretypeWord</title>
<ellipse fill="none" stroke="black" cx="1189" cy="-162" rx="120.48" ry="18"/>
<text text-anchor="middle" x="1189" y="-158.3" font-family="Times,serif" font-size="14.00">pretype&lt;κ word, true&gt;</text>
</g>
<!-- pretypeWord&#45;&gt;kind -->
<g id="edge27" class="edge">
<title>pretypeWord&#45;&gt;kind</title>
<path fill="none" stroke="black" d="M1189,-180.3C1189,-188.02 1189,-197.29 1189,-205.89"/>
<polygon fill="black" stroke="black" points="1185.5,-205.9 1189,-215.9 1192.5,-205.9 1185.5,-205.9"/>
</g>
<!-- pretypeStruct -->
<g id="node29" class="node">
<title>pretypeStruct</title>
<ellipse fill="none" stroke="black" cx="1957" cy="-162" rx="117.78" ry="18"/>
<text text-anchor="middle" x="1957" y="-158.3" font-family="Times,serif" font-size="14.00">pretype&lt;struct(...), κ&gt;</text>
</g>
<!-- pretypeStruct&#45;&gt;kind -->
<g id="edge28" class="edge">
<title>pretypeStruct&#45;&gt;kind</title>
<path fill="none" stroke="black" d="M1893.3,-177.15C1873.14,-181.19 1850.72,-185.24 1830,-188 1635.58,-213.86 1405.89,-225.42 1281.06,-230.13"/>
<polygon fill="black" stroke="black" points="1280.65,-226.64 1270.78,-230.51 1280.91,-233.64 1280.65,-226.64"/>
</g>
<!-- boolean -->
<g id="node30" class="node">
<title>boolean</title>
<ellipse fill="none" stroke="black" cx="1206" cy="-90" rx="30.59" ry="18"/>
<text text-anchor="middle" x="1206" y="-86.3" font-family="Times,serif" font-size="14.00">bool</text>
</g>
<!-- boolean&#45;&gt;pretypeWord -->
<g id="edge29" class="edge">
<title>boolean&#45;&gt;pretypeWord</title>
<path fill="none" stroke="black" d="M1201.88,-107.95C1199.99,-115.74 1197.7,-125.18 1195.58,-133.92"/>
<polygon fill="black" stroke="black" points="1192.15,-133.18 1193.2,-143.72 1198.96,-134.83 1192.15,-133.18"/>
</g>
<!-- number -->
<g id="node31" class="node">
<title>number</title>
<ellipse fill="none" stroke="black" cx="1320" cy="-90" rx="65.79" ry="18"/>
<text text-anchor="middle" x="1320" y="-86.3" font-family="Times,serif" font-size="14.00">σ integer(τ)</text>
</g>
<!-- number&#45;&gt;pretypeWord -->
<g id="edge30" class="edge">
<title>number&#45;&gt;pretypeWord</title>
<path fill="none" stroke="black" d="M1291.25,-106.36C1272.96,-116.13 1249.02,-128.93 1228.91,-139.68"/>
<polygon fill="black" stroke="black" points="1227.14,-136.65 1219.97,-144.45 1230.44,-142.83 1227.14,-136.65"/>
</g>
<!-- functionPointer -->
<g id="node32" class="node">
<title>functionPointer</title>
<ellipse fill="none" stroke="black" cx="1529" cy="-90" rx="125.38" ry="18"/>
<text text-anchor="middle" x="1529" y="-86.3" font-family="Times,serif" font-size="14.00">function*(σ) =&gt; τ uses π</text>
</g>
<!-- functionPointer&#45;&gt;pretypePtrU -->
<g id="edge31" class="edge">
<title>functionPointer&#45;&gt;pretypePtrU</title>
<path fill="none" stroke="black" d="M1508.67,-107.95C1497.94,-116.89 1484.61,-127.99 1472.92,-137.73"/>
<polygon fill="black" stroke="black" points="1470.59,-135.12 1465.15,-144.21 1475.07,-140.5 1470.59,-135.12"/>
</g>
<!-- shared -->
<g id="node33" class="node">
<title>shared</title>
<ellipse fill="none" stroke="black" cx="1711" cy="-90" rx="38.19" ry="18"/>
<text text-anchor="middle" x="1711" y="-86.3" font-family="Times,serif" font-size="14.00">σ @ π</text>
</g>
<!-- shared&#45;&gt;pretypePtrU -->
<g id="edge32" class="edge">
<title>shared&#45;&gt;pretypePtrU</title>
<path fill="none" stroke="black" d="M1688.15,-104.55C1680.37,-108.7 1671.5,-112.98 1663,-116 1656.2,-118.42 1583.06,-133.35 1523.35,-145.36"/>
<polygon fill="black" stroke="black" points="1522.63,-141.93 1513.51,-147.33 1524,-148.79 1522.63,-141.93"/>
</g>
<!-- unique -->
<g id="node34" class="node">
<title>unique</title>
<ellipse fill="none" stroke="black" cx="1819" cy="-90" rx="51.99" ry="18"/>
<text text-anchor="middle" x="1819" y="-86.3" font-family="Times,serif" font-size="14.00">unique σ</text>
</g>
<!-- unique&#45;&gt;pretypePtrL -->
<g id="edge33" class="edge">
<title>unique&#45;&gt;pretypePtrL</title>
<path fill="none" stroke="black" d="M1793.98,-105.85C1777.58,-115.57 1755.88,-128.45 1737.56,-139.31"/>
<polygon fill="black" stroke="black" points="1735.7,-136.35 1728.88,-144.46 1739.27,-142.37 1735.7,-136.35"/>
</g>
<!-- tuple -->
<g id="node35" class="node">
<title>tuple</title>
<ellipse fill="none" stroke="black" cx="1948" cy="-90" rx="49.29" ry="18"/>
<text text-anchor="middle" x="1948" y="-86.3" font-family="Times,serif" font-size="14.00">(σ, τ, ...)</text>
</g>
<!-- tuple&#45;&gt;pretypeStruct -->
<g id="edge34" class="edge">
<title>tuple&#45;&gt;pretypeStruct</title>
<path fill="none" stroke="black" d="M1950.22,-108.3C1951.22,-116.02 1952.41,-125.29 1953.51,-133.89"/>
<polygon fill="black" stroke="black" points="1950.05,-134.42 1954.8,-143.9 1957,-133.53 1950.05,-134.42"/>
</g>
<!-- type -->
<g id="node36" class="node">
<title>type</title>
<ellipse fill="none" stroke="black" cx="2307" cy="-162" rx="31.4" ry="18"/>
<text text-anchor="middle" x="2307" y="-158.3" font-family="Times,serif" font-size="14.00">type</text>
</g>
<!-- type&#45;&gt;kind -->
<g id="edge35" class="edge">
<title>type&#45;&gt;kind</title>
<path fill="none" stroke="black" d="M2289.99,-177.36C2284.04,-181.58 2277.07,-185.67 2270,-188 2177.65,-218.39 1527.7,-229.06 1282.41,-232.03"/>
<polygon fill="black" stroke="black" points="1282.05,-228.53 1272.09,-232.15 1282.13,-235.53 1282.05,-228.53"/>
</g>
<!-- inline -->
<g id="node37" class="node">
<title>inline</title>
<ellipse fill="none" stroke="black" cx="2052" cy="-90" rx="36.29" ry="18"/>
<text text-anchor="middle" x="2052" y="-86.3" font-family="Times,serif" font-size="14.00">σ &#45;π τ</text>
</g>
<!-- inline&#45;&gt;type -->
<g id="edge36" class="edge">
<title>inline&#45;&gt;type</title>
<path fill="none" stroke="black" d="M2073.23,-104.74C2080.78,-109.02 2089.51,-113.31 2098,-116 2171.37,-139.24 2197.84,-109.25 2270,-136 2273.82,-137.41 2277.62,-139.3 2281.26,-141.4"/>
<polygon fill="black" stroke="black" points="2279.58,-144.48 2289.88,-146.94 2283.36,-138.59 2279.58,-144.48"/>
</g>
<!-- inlineAbstraction -->
<g id="node38" class="node">
<title>inlineAbstraction</title>
<ellipse fill="none" stroke="black" cx="2049" cy="-18" rx="40.89" ry="18"/>
<text text-anchor="middle" x="2049" y="-14.3" font-family="Times,serif" font-size="14.00">\x &#45;&gt; e</text>
</g>
<!-- inlineAbstraction&#45;&gt;inline -->
<g id="edge37" class="edge">
<title>inlineAbstraction&#45;&gt;inline</title>
<path fill="none" stroke="black" d="M2049.74,-36.3C2050.07,-44.02 2050.47,-53.29 2050.84,-61.89"/>
<polygon fill="black" stroke="black" points="2047.34,-62.05 2051.27,-71.9 2054.34,-61.75 2047.34,-62.05"/>
</g>
<!-- poly -->
<g id="node39" class="node">
<title>poly</title>
<ellipse fill="none" stroke="black" cx="2151" cy="-90" rx="44.39" ry="18"/>
<text text-anchor="middle" x="2151" y="-86.3" font-family="Times,serif" font-size="14.00">&lt;...&gt; σ</text>
</g>
<!-- poly&#45;&gt;type -->
<g id="edge38" class="edge">
<title>poly&#45;&gt;type</title>
<path fill="none" stroke="black" d="M2176.54,-104.89C2184.27,-108.78 2192.87,-112.82 2201,-116 2230.73,-127.63 2241.09,-122.45 2270,-136 2273.43,-137.61 2276.9,-139.51 2280.27,-141.54"/>
<polygon fill="black" stroke="black" points="2278.55,-144.6 2288.85,-147.09 2282.35,-138.72 2278.55,-144.6"/>
</g>
<!-- polyIntroduction -->
<g id="node40" class="node">
<title>polyIntroduction</title>
<ellipse fill="none" stroke="black" cx="2151" cy="-18" rx="43.59" ry="18"/>
<text text-anchor="middle" x="2151" y="-14.3" font-family="Times,serif" font-size="14.00">&lt;...&gt; e</text>
</g>
<!-- polyIntroduction&#45;&gt;poly -->
<g id="edge39" class="edge">
<title>polyIntroduction&#45;&gt;poly</title>
<path fill="none" stroke="black" d="M2151,-36.3C2151,-44.02 2151,-53.29 2151,-61.89"/>
<polygon fill="black" stroke="black" points="2147.5,-61.9 2151,-71.9 2154.5,-61.9 2147.5,-61.9"/>
</g>
<!-- effectBoolean -->
<g id="node41" class="node">
<title>effectBoolean</title>
<ellipse fill="none" stroke="black" cx="2264" cy="-90" rx="50.89" ry="18"/>
<text text-anchor="middle" x="2264" y="-86.3" font-family="Times,serif" font-size="14.00">bool in π</text>
</g>
<!-- effectBoolean&#45;&gt;type -->
<g id="edge40" class="edge">
<title>effectBoolean&#45;&gt;type</title>
<path fill="none" stroke="black" d="M2274.41,-107.95C2279.61,-116.41 2286,-126.81 2291.74,-136.16"/>
<polygon fill="black" stroke="black" points="2288.77,-138 2296.98,-144.69 2294.73,-134.34 2288.77,-138"/>
</g>
<!-- effectNumber -->
<g id="node42" class="node">
<title>effectNumber</title>
<ellipse fill="none" stroke="black" cx="2418" cy="-90" rx="85.59" ry="18"/>
<text text-anchor="middle" x="2418" y="-86.3" font-family="Times,serif" font-size="14.00">σ integer(τ) in π</text>
</g>
<!-- effectNumber&#45;&gt;type -->
<g id="edge41" class="edge">
<title>effectNumber&#45;&gt;type</title>
<path fill="none" stroke="black" d="M2392.26,-107.24C2375.46,-117.83 2353.5,-131.68 2336.07,-142.67"/>
<polygon fill="black" stroke="black" points="2334.02,-139.83 2327.42,-148.12 2337.75,-145.75 2334.02,-139.83"/>
</g>
<!-- effectTuple -->
<g id="node43" class="node">
<title>effectTuple</title>
<ellipse fill="none" stroke="black" cx="2591" cy="-90" rx="69.59" ry="18"/>
<text text-anchor="middle" x="2591" y="-86.3" font-family="Times,serif" font-size="14.00">(σ, τ, ...) in π</text>
</g>
<!-- effectTuple&#45;&gt;type -->
<g id="edge42" class="edge">
<title>effectTuple&#45;&gt;type</title>
<path fill="none" stroke="black" d="M2552.12,-105.07C2539.75,-109.11 2525.92,-113.18 2513,-116 2440.4,-131.86 2417.08,-111.27 2347,-136 2342.62,-137.54 2338.23,-139.63 2334.03,-141.94"/>
<polygon fill="black" stroke="black" points="2332.01,-139.07 2325.25,-147.24 2335.62,-145.07 2332.01,-139.07"/>
</g>
<!-- effectFunction -->
<g id="node44" class="node">
<title>effectFunction</title>
<ellipse fill="none" stroke="black" cx="2824" cy="-90" rx="145.67" ry="18"/>
<text text-anchor="middle" x="2824" y="-86.3" font-family="Times,serif" font-size="14.00">function*(σ) =&gt; τ uses ρ in π</text>
</g>
<!-- effectFunction&#45;&gt;type -->
<g id="edge43" class="edge">
<title>effectFunction&#45;&gt;type</title>
<path fill="none" stroke="black" d="M2745.86,-105.22C2721.62,-109.22 2694.76,-113.23 2670,-116 2598.53,-123.99 2415.48,-114.05 2347,-136 2342.58,-137.42 2338.16,-139.43 2333.95,-141.71"/>
<polygon fill="black" stroke="black" points="2331.94,-138.84 2325.17,-146.99 2335.54,-144.84 2331.94,-138.84"/>
</g>
<!-- effect -->
<g id="node45" class="node">
<title>effect</title>
<ellipse fill="none" stroke="black" cx="3025" cy="-90" rx="37.89" ry="18"/>
<text text-anchor="middle" x="3025" y="-86.3" font-family="Times,serif" font-size="14.00">σ in π</text>
</g>
<!-- effect&#45;&gt;type -->
<g id="edge44" class="edge">
<title>effect&#45;&gt;type</title>
<path fill="none" stroke="black" d="M3003.89,-105.15C2996.35,-109.46 2987.6,-113.67 2979,-116 2843.38,-152.77 2481.44,-95.13 2347,-136 2342.35,-137.41 2337.7,-139.52 2333.31,-141.91"/>
<polygon fill="black" stroke="black" points="2331.46,-138.94 2324.73,-147.12 2335.09,-144.92 2331.46,-138.94"/>
</g>
<!-- true -->
<g id="node46" class="node">
<title>true</title>
<ellipse fill="none" stroke="black" cx="2243" cy="-18" rx="30.59" ry="18"/>
<text text-anchor="middle" x="2243" y="-14.3" font-family="Times,serif" font-size="14.00">true</text>
</g>
<!-- true&#45;&gt;effectBoolean -->
<g id="edge45" class="edge">
<title>true&#45;&gt;effectBoolean</title>
<path fill="none" stroke="black" d="M2248.08,-35.95C2250.42,-43.74 2253.25,-53.18 2255.88,-61.92"/>
<polygon fill="black" stroke="black" points="2252.59,-63.15 2258.82,-71.72 2259.3,-61.14 2252.59,-63.15"/>
</g>
<!-- relate -->
<g id="node47" class="node">
<title>relate</title>
<ellipse fill="none" stroke="black" cx="2329" cy="-18" rx="37.89" ry="18"/>
<text text-anchor="middle" x="2329" y="-14.3" font-family="Times,serif" font-size="14.00">e &lt; e&#39;</text>
</g>
<!-- relate&#45;&gt;effectBoolean -->
<g id="edge46" class="edge">
<title>relate&#45;&gt;effectBoolean</title>
<path fill="none" stroke="black" d="M2314.25,-34.88C2305.89,-43.88 2295.28,-55.32 2285.96,-65.35"/>
<polygon fill="black" stroke="black" points="2283.38,-62.98 2279.14,-72.69 2288.51,-67.75 2283.38,-62.98"/>
</g>
<!-- num -->
<g id="node48" class="node">
<title>num</title>
<ellipse fill="none" stroke="black" cx="2412" cy="-18" rx="27" ry="18"/>
<text text-anchor="middle" x="2412" y="-14.3" font-family="Times,serif" font-size="14.00">n</text>
</g>
<!-- num&#45;&gt;effectNumber -->
<g id="edge47" class="edge">
<title>num&#45;&gt;effectNumber</title>
<path fill="none" stroke="black" d="M2413.48,-36.3C2414.14,-44.02 2414.94,-53.29 2415.68,-61.89"/>
<polygon fill="black" stroke="black" points="2412.19,-62.23 2416.53,-71.9 2419.17,-61.63 2412.19,-62.23"/>
</g>
<!-- arith -->
<g id="node49" class="node">
<title>arith</title>
<ellipse fill="none" stroke="black" cx="2495" cy="-18" rx="37.89" ry="18"/>
<text text-anchor="middle" x="2495" y="-14.3" font-family="Times,serif" font-size="14.00">e + e&#39;</text>
</g>
<!-- arith&#45;&gt;effectNumber -->
<g id="edge48" class="edge">
<title>arith&#45;&gt;effectNumber</title>
<path fill="none" stroke="black" d="M2478.29,-34.19C2468.23,-43.34 2455.21,-55.18 2443.84,-65.51"/>
<polygon fill="black" stroke="black" points="2441.34,-63.06 2436.29,-72.37 2446.04,-68.24 2441.34,-63.06"/>
</g>
<!-- tupleIntro -->
<g id="node50" class="node">
<title>tupleIntro</title>
<ellipse fill="none" stroke="black" cx="2599" cy="-18" rx="48.19" ry="18"/>
<text text-anchor="middle" x="2599" y="-14.3" font-family="Times,serif" font-size="14.00">(e,e&#39;, ...)</text>
</g>
<!-- tupleIntro&#45;&gt;effectTuple -->
<g id="edge49" class="edge">
<title>tupleIntro&#45;&gt;effectTuple</title>
<path fill="none" stroke="black" d="M2597.02,-36.3C2596.14,-44.02 2595.08,-53.29 2594.1,-61.89"/>
<polygon fill="black" stroke="black" points="2590.61,-61.56 2592.95,-71.9 2597.57,-62.36 2590.61,-61.56"/>
</g>
<!-- extern -->
<g id="node51" class="node">
<title>extern</title>
<ellipse fill="none" stroke="black" cx="2757" cy="-18" rx="71.49" ry="18"/>
<text text-anchor="middle" x="2757" y="-14.3" font-family="Times,serif" font-size="14.00">extern &quot;sym&quot;</text>
</g>
<!-- extern&#45;&gt;effectFunction -->
<g id="edge50" class="edge">
<title>extern&#45;&gt;effectFunction</title>
<path fill="none" stroke="black" d="M2772.88,-35.59C2781.18,-44.27 2791.51,-55.05 2800.7,-64.66"/>
<polygon fill="black" stroke="black" points="2798.33,-67.24 2807.77,-72.04 2803.38,-62.4 2798.33,-67.24"/>
</g>
<!-- let -->
<g id="node52" class="node">
<title>let</title>
<ellipse fill="none" stroke="black" cx="2910" cy="-18" rx="63.89" ry="18"/>
<text text-anchor="middle" x="2910" y="-14.3" font-family="Times,serif" font-size="14.00">let x = e; e&#39;</text>
</g>
<!-- let&#45;&gt;effect -->
<g id="edge51" class="edge">
<title>let&#45;&gt;effect</title>
<path fill="none" stroke="black" d="M2935.52,-34.54C2952.81,-45.06 2975.75,-59.02 2994.08,-70.18"/>
<polygon fill="black" stroke="black" points="2992.29,-73.19 3002.66,-75.4 2995.93,-67.21 2992.29,-73.19"/>
</g>
<!-- app -->
<g id="node53" class="node">
<title>app</title>
<ellipse fill="none" stroke="black" cx="3025" cy="-18" rx="33.6" ry="18"/>
<text text-anchor="middle" x="3025" y="-14.3" font-family="Times,serif" font-size="14.00">e (e&#39;)</text>
</g>
<!-- app&#45;&gt;effect -->
<g id="edge52" class="edge">
<title>app&#45;&gt;effect</title>
<path fill="none" stroke="black" d="M3025,-36.3C3025,-44.02 3025,-53.29 3025,-61.89"/>
<polygon fill="black" stroke="black" points="3021.5,-61.9 3025,-71.9 3028.5,-61.9 3021.5,-61.9"/>
</g>
<!-- read -->
<g id="node54" class="node">
<title>read</title>
<ellipse fill="none" stroke="black" cx="3104" cy="-18" rx="27" ry="18"/>
<text text-anchor="middle" x="3104" y="-14.3" font-family="Times,serif" font-size="14.00">*e</text>
</g>
<!-- read&#45;&gt;effect -->
<g id="edge53" class="edge">
<title>read&#45;&gt;effect</title>
<path fill="none" stroke="black" d="M3088.39,-32.83C3077.37,-42.6 3062.37,-55.89 3049.73,-67.09"/>
<polygon fill="black" stroke="black" points="3047.38,-64.49 3042.22,-73.74 3052.03,-69.73 3047.38,-64.49"/>
</g>
<!-- if -->
<g id="node55" class="node">
<title>if</title>
<ellipse fill="none" stroke="black" cx="3243" cy="-18" rx="94.48" ry="18"/>
<text text-anchor="middle" x="3243" y="-14.3" font-family="Times,serif" font-size="14.00">if e {e&#39;} else {e&#39;&#39;}</text>
</g>
<!-- if&#45;&gt;effect -->
<g id="edge54" class="edge">
<title>if&#45;&gt;effect</title>
<path fill="none" stroke="black" d="M3197.03,-33.76C3157.93,-46.32 3102.34,-64.17 3065.03,-76.15"/>
<polygon fill="black" stroke="black" points="3063.95,-72.82 3055.5,-79.21 3066.09,-79.48 3063.95,-72.82"/>
</g>
</g>
</svg>
