<?xml version="1.0" encoding="UTF-8" standalone="no"?>
<!DOCTYPE svg PUBLIC "-//W3C//DTD SVG 1.1//EN"
 "http://www.w3.org/Graphics/SVG/1.1/DTD/svg11.dtd">
<!-- Generated by graphviz version 2.43.0 (0)
 -->
<!-- Title: internals Pages: 1 -->
<svg width="1055pt" height="83pt"
 viewBox="0.00 0.00 1054.57 82.50" xmlns="http://www.w3.org/2000/svg" xmlns:xlink="http://www.w3.org/1999/xlink">
<g id="graph0" class="graph" transform="scale(1 1) rotate(0) translate(4 78.5)">
<title>internals</title>
<polygon fill="white" stroke="transparent" points="-4,4 -4,-78.5 1050.57,-78.5 1050.57,4 -4,4"/>
<!-- source_aith -->
<g id="node1" class="node">
<title>source_aith</title>
<ellipse fill="none" stroke="black" cx="46.15" cy="-23.5" rx="46.29" ry="18"/>
<text text-anchor="middle" x="46.15" y="-19.8" font-family="Times,serif" font-size="14.00">file.aith</text>
</g>
<!-- surface -->
<g id="node3" class="node">
<title>surface</title>
<ellipse fill="none" stroke="black" cx="258.14" cy="-23.5" rx="44.69" ry="18"/>
<text text-anchor="middle" x="258.14" y="-19.8" font-family="Times,serif" font-size="14.00">surface</text>
</g>
<!-- source_aith&#45;&gt;surface -->
<g id="edge1" class="edge">
<title>source_aith&#45;&gt;surface</title>
<path fill="none" stroke="black" d="M92.45,-23.5C124.8,-23.5 168.45,-23.5 202.69,-23.5"/>
<polygon fill="black" stroke="black" points="202.99,-27 212.99,-23.5 202.99,-20 202.99,-27"/>
<text text-anchor="middle" x="152.79" y="-27.3" font-family="Times,serif" font-size="14.00">parse</text>
</g>
<!-- source_C -->
<g id="node2" class="node">
<title>source_C</title>
<ellipse fill="none" stroke="black" cx="1013.42" cy="-23.5" rx="33.29" ry="18"/>
<text text-anchor="middle" x="1013.42" y="-19.8" font-family="Times,serif" font-size="14.00">file.c</text>
</g>
<!-- surface&#45;&gt;source_aith -->
<g id="edge2" class="edge">
<title>surface&#45;&gt;source_aith</title>
<path fill="none" stroke="black" d="M224.5,-11.49C215.19,-8.61 204.96,-5.95 195.29,-4.5 157.93,1.11 147.67,1 110.29,-4.5 103.9,-5.44 97.26,-6.89 90.78,-8.58"/>
<polygon fill="black" stroke="black" points="89.49,-5.31 80.81,-11.39 91.39,-12.05 89.49,-5.31"/>
<text text-anchor="middle" x="152.79" y="-8.3" font-family="Times,serif" font-size="14.00">pretty print</text>
</g>
<!-- core -->
<g id="node4" class="node">
<title>core</title>
<ellipse fill="none" stroke="black" cx="446.53" cy="-23.5" rx="30.59" ry="18"/>
<text text-anchor="middle" x="446.53" y="-19.8" font-family="Times,serif" font-size="14.00">core</text>
</g>
<!-- surface&#45;&gt;core -->
<g id="edge3" class="edge">
<title>surface&#45;&gt;core</title>
<path fill="none" stroke="black" d="M303.31,-23.5C334.42,-23.5 375.71,-23.5 405.78,-23.5"/>
<polygon fill="black" stroke="black" points="405.91,-27 415.91,-23.5 405.91,-20 405.91,-27"/>
<text text-anchor="middle" x="359.48" y="-27.3" font-family="Times,serif" font-size="14.00">type check</text>
</g>
<!-- core&#45;&gt;surface -->
<g id="edge4" class="edge">
<title>core&#45;&gt;surface</title>
<path fill="none" stroke="black" d="M422.37,-12.2C414.78,-9.06 406.19,-6.08 397.98,-4.5 364.38,1.96 354.83,0.58 320.98,-4.5 314.64,-5.46 308.05,-6.93 301.64,-8.64"/>
<polygon fill="black" stroke="black" points="300.41,-5.35 291.78,-11.49 302.35,-12.08 300.41,-5.35"/>
<text text-anchor="middle" x="359.48" y="-8.3" font-family="Times,serif" font-size="14.00">annotate</text>
</g>
<!-- core&#45;&gt;core -->
<g id="edge5" class="edge">
<title>core&#45;&gt;core</title>
<path fill="none" stroke="black" d="M433.29,-39.79C430.09,-49.89 434.51,-59.5 446.53,-59.5 454.23,-59.5 458.81,-55.56 460.27,-50.07"/>
<polygon fill="black" stroke="black" points="463.75,-49.61 459.78,-39.79 456.76,-49.95 463.75,-49.61"/>
<text text-anchor="middle" x="446.53" y="-63.3" font-family="Times,serif" font-size="14.00">reduce</text>
</g>
<!-- simple -->
<g id="node5" class="node">
<title>simple</title>
<ellipse fill="none" stroke="black" cx="612.67" cy="-23.5" rx="41.69" ry="18"/>
<text text-anchor="middle" x="612.67" y="-19.8" font-family="Times,serif" font-size="14.00">simple</text>
</g>
<!-- core&#45;&gt;simple -->
<g id="edge6" class="edge">
<title>core&#45;&gt;simple</title>
<path fill="none" stroke="black" d="M477.26,-23.5C500.52,-23.5 533.42,-23.5 560.85,-23.5"/>
<polygon fill="black" stroke="black" points="561.06,-27 571.06,-23.5 561.06,-20 561.06,-27"/>
<text text-anchor="middle" x="524.08" y="-27.3" font-family="Times,serif" font-size="14.00">simplify</text>
</g>
<!-- C -->
<g id="node6" class="node">
<title>C</title>
<ellipse fill="none" stroke="black" cx="832.27" cy="-23.5" rx="27" ry="18"/>
<text text-anchor="middle" x="832.27" y="-19.8" font-family="Times,serif" font-size="14.00">C</text>
</g>
<!-- simple&#45;&gt;C -->
<g id="edge7" class="edge">
<title>simple&#45;&gt;C</title>
<path fill="none" stroke="black" d="M654.35,-23.5C694.71,-23.5 756.01,-23.5 794.83,-23.5"/>
<polygon fill="black" stroke="black" points="795.15,-27 805.15,-23.5 795.15,-20 795.15,-27"/>
<text text-anchor="middle" x="729.77" y="-27.3" font-family="Times,serif" font-size="14.00">code generation</text>
</g>
<!-- C&#45;&gt;source_C -->
<g id="edge8" class="edge">
<title>C&#45;&gt;source_C</title>
<path fill="none" stroke="black" d="M859.32,-23.5C888.25,-23.5 935.41,-23.5 969.75,-23.5"/>
<polygon fill="black" stroke="black" points="969.96,-27 979.96,-23.5 969.96,-20 969.96,-27"/>
<text text-anchor="middle" x="919.77" y="-27.3" font-family="Times,serif" font-size="14.00">pretty print</text>
</g>
</g>
</svg>
